# xmcd
#
# Track frame offsets:
# 150
# 23238
# 37139
# 51668
# 66665
# 78656
# 93774
# 105429
# 120076
# 134933
# 151945
# 165282
# 180514
# 195356
# 214678
# 228858
# 248385
# 264027
# 281067
# 306221
#
# Disc length: 4306 seconds
#
#
# Revision: 0
# Processed by: cddbd v1.5.2PL0 Copyright (c) Steve Scherf et al.
# Submitted via: FreeRIP 2.951 
#
DISCID=0810d014
DTITLE=Almir Sater - Almir Sater ao Vivo
DYEAR=2000
DGENRE=Sertanejo
TTITLE0=Almir Sater - Cavaleiro  da Lua
TTITLE1=Almir Sater - Tocando em Frente
TTITLE2=Almir Sater - Chalana
TTITLE3=Almir Sater - Trem de Lata
TTITLE4=Almir Sater - Razoes
TTITLE5=Almir Sater - Um Violeiro toca
TTITLE6=Almir Sater - Toque de Viola
TTITLE7=Almir Sater - Peao
TTITLE8=Almir Sater - Varandas
TTITLE9=Almir Sater - Agua que Correu
TTITLE10=Almir Sater - enzinho
TTITLE11=Almir Sater - Trem do Pantanal
TTITLE12=Almir Sater - O Ultimo Condor
TTITLE13=Almir Sater - Sonhos Guaranis
TTITLE14=Almir Sater - Viola e vinho Velho
TTITLE15=Almir Sater -  E Necessario
TTITLE16=Almir Sater - Terra de Sonhos
TTITLE17=Almir Sater - Mes de maio
TTITLE18=Almir Sater - Vida Bela, Vida
TTITLE19=Almir Sater - A Saudade e uma Longa estrada
EXTD=Alem de Cantor tambem ja foi Ator Global
EXTT0=
EXTT1=
EXTT2=
EXTT3=
EXTT4=
EXTT5=
EXTT6=
EXTT7=
EXTT8=
EXTT9=
EXTT10=
EXTT11=
EXTT12=
EXTT13=
EXTT14=
EXTT15=
EXTT16=
EXTT17=
EXTT18=
EXTT19=
PLAYORDER=
